<svg width="234" height="84" viewBox="0 0 234 84" fill="none" xmlns="http://www.w3.org/2000/svg">
<g clip-path="url(#clip0_1351_5)">
<path d="M4.88342 61.0909V15.805H11.3959L27.0508 53.9669H27.2387L42.8936 15.805H49.406V61.0909H44.146V26.0986H43.9582L29.5243 61.0909H24.7652L10.3314 26.0986H10.1435V61.0909H4.88342ZM61.0583 61.0909V15.805H67.571L83.2258 53.9669H83.4138L99.0686 15.805H105.581V61.0909H100.321V26.0986H100.133L85.6993 61.0909H80.9403L66.5063 26.0986H66.3184V61.0909H61.0583ZM132.012 61.8441C122.243 61.8441 115.636 57.0425 115.073 49.2908L115.041 48.8514H120.677L120.74 49.2908C121.397 53.8414 125.781 56.6345 132.325 56.6345C138.837 56.6345 142.939 53.6844 142.939 49.0084V48.977C142.939 44.9913 140.34 42.7631 134.14 41.3823L129.131 40.2838C120.301 38.3381 116.169 34.3524 116.169 27.7306V27.6992C116.2 20.2614 122.775 15.0518 132.074 15.0518C140.904 15.0518 147.354 20.1672 147.854 27.5737L147.886 28.0444H142.25L142.188 27.605C141.499 22.9917 137.648 20.2614 131.918 20.2614C125.875 20.2928 121.93 23.18 121.93 27.5423V27.5737C121.93 31.2769 124.653 33.5992 130.54 34.8859L135.549 35.9844C144.817 38.0242 148.699 41.7902 148.699 48.6945V48.7259C148.699 56.76 142.344 61.8441 132.012 61.8441ZM176.164 61.8441C164.954 61.8441 158.192 55.0653 158.192 45.211V15.805H163.827V44.8344C163.827 51.8014 168.336 56.6345 176.164 56.6345C183.991 56.6345 188.437 51.8014 188.437 44.8344V15.805H194.073V45.211C194.073 55.0653 187.372 61.8441 176.164 61.8441Z" fill="#2EB55C"/>
<path d="M218.298 28.1818L218.474 57.2727M218.039 14C218.039 14 214.233 16.6004 214.233 21.2234C214.233 25.8464 218.039 28.6274 218.039 28.6274C218.039 28.6274 221.844 25.9186 221.844 21.2234C221.844 16.5282 218.039 14 218.039 14ZM230.326 23.9385C230.326 23.9385 226.219 22.3573 222.421 24.932C218.624 27.5066 218.309 32.0848 218.309 32.0848C218.309 32.0848 222.505 33.6056 226.361 30.9907C230.219 28.3758 230.326 23.9385 230.326 23.9385ZM230.326 33.0294C230.326 33.0294 226.219 31.4483 222.421 34.023C218.624 36.5977 218.309 41.1758 218.309 41.1758C218.309 41.1758 222.505 42.6966 226.361 40.0817C230.219 37.4669 230.326 33.0294 230.326 33.0294ZM230.326 41.393C230.326 41.393 226.219 39.8118 222.421 42.3865C218.624 44.9611 218.309 49.5393 218.309 49.5393C218.309 49.5393 222.505 51.0602 226.361 48.4453C230.219 45.8304 230.326 41.393 230.326 41.393ZM206.2 23.9385C206.2 23.9385 210.307 22.3573 214.105 24.932C217.902 27.5066 218.217 32.0848 218.217 32.0848C218.217 32.0848 214.021 33.6056 210.164 30.9907C206.307 28.3758 206.2 23.9385 206.2 23.9385ZM206.2 33.0294C206.2 33.0294 210.307 31.4483 214.105 34.023C217.902 36.5977 218.217 41.1758 218.217 41.1758C218.217 41.1758 214.021 42.6966 210.164 40.0817C206.307 37.4669 206.2 33.0294 206.2 33.0294ZM206.2 41.393C206.2 41.393 210.307 39.8118 214.105 42.3865C217.902 44.9611 218.217 49.5393 218.217 49.5393C218.217 49.5393 214.021 51.0602 210.164 48.4453C206.307 45.8304 206.2 41.393 206.2 41.393Z" stroke="#2EB55C" stroke-width="5"/>
<path d="M3.84546 80.1818L7.89278 69.4208H8.89722L12.9371 80.1818H11.8657L10.6679 76.8854H6.12209L4.92426 80.1818H3.84546ZM8.38386 70.6662L6.44201 76.0059H10.348L8.40615 70.6662H8.38386ZM20.1836 80.316C18.4724 80.316 17.4531 79.2126 17.4531 77.3926V72.4257H18.4427V77.2284C18.4427 78.6678 19.1569 79.4359 20.4663 79.4359C21.8204 79.4359 22.7132 78.4667 22.7132 77.0197V72.4257H23.7028V80.1818H22.7132V78.8619H22.6909C22.2966 79.6968 21.4336 80.316 20.1836 80.316ZM31.5147 80.3237C30.2425 80.3237 29.6175 79.7191 29.6175 78.3624V73.2537H28.4792V72.4257H29.6175V70.3308H30.6293V72.4257H32.162V73.2537H30.6293V78.3471C30.6293 79.2049 30.9939 79.4957 31.7156 79.4957C31.8941 79.4957 32.0504 79.4735 32.162 79.4582V80.2638C32.0057 80.2937 31.7528 80.3237 31.5147 80.3237ZM40.2195 80.3237C38.1065 80.316 36.6929 78.7646 36.6929 76.3037V76.2891C36.6929 73.8283 38.114 72.2845 40.2195 72.2845C42.3175 72.2845 43.746 73.8207 43.746 76.2891V76.3037C43.746 78.7722 42.325 80.3237 40.2195 80.3237ZM40.2269 79.4436C41.7372 79.4436 42.7416 78.265 42.7416 76.3037V76.2891C42.7416 74.3278 41.7298 73.1646 40.2195 73.1646C38.7092 73.1646 37.7048 74.3348 37.7048 76.2891V76.3037C37.7048 78.2727 38.7017 79.4359 40.2269 79.4436ZM60.3744 80.3536C57.4281 80.3536 55.5235 78.1683 55.5235 74.7975V74.7898C55.5235 71.412 57.4132 69.249 60.3744 69.249C62.5989 69.249 64.2429 70.6217 64.6448 72.6351L64.66 72.7096H63.6405L63.5958 72.5753C63.1867 71.1212 62.0483 70.1966 60.3744 70.1966C58.053 70.1966 56.5651 71.9937 56.5651 74.7898V74.7975C56.5651 77.5867 58.068 79.406 60.3744 79.406C62.0409 79.406 63.1717 78.489 63.6182 76.9605L63.6405 76.893H64.66L64.6448 76.9675C64.2429 78.9962 62.6063 80.3536 60.3744 80.3536ZM69.8159 80.1818V72.4257H70.798V73.8207H70.8272C71.1028 72.8737 71.7872 72.2845 72.7249 72.2845C72.9852 72.2845 73.2156 72.3367 73.335 72.3736V73.3357C73.208 73.2836 72.9331 73.2314 72.5979 73.2314C71.497 73.2314 70.798 74.0669 70.798 75.3791V80.1818H69.8159ZM80.9015 80.3237C78.7879 80.316 77.3747 78.7646 77.3747 76.3037V76.2891C77.3747 73.8283 78.7956 72.2845 80.9015 72.2845C82.9991 72.2845 84.4276 73.8207 84.4276 76.2891V76.3037C84.4276 78.7722 83.0067 80.3237 80.9015 80.3237ZM80.9084 79.4436C82.4188 79.4436 83.4232 78.265 83.4232 76.3037V76.2891C83.4232 74.3278 82.4118 73.1646 80.9015 73.1646C79.3911 73.1646 78.3867 74.3348 78.3867 76.2891V76.3037C78.3867 78.2727 79.3835 79.4359 80.9084 79.4436ZM89.5466 82.7921V72.4257H90.5287V74.0669H90.5586C90.9897 73.015 91.942 72.2845 93.1844 72.2845C95.1488 72.2845 96.4655 73.8805 96.4655 76.3037V76.3114C96.4655 78.7423 95.1411 80.3237 93.1997 80.3237C91.9642 80.3237 90.9827 79.6001 90.5586 78.5635H90.5287V82.7921H89.5466ZM93.0136 79.4436C94.5012 79.4436 95.4611 78.2128 95.4611 76.3114V76.3037C95.4611 74.3877 94.5012 73.1646 93.0136 73.1646C91.5553 73.1646 90.5287 74.4246 90.5287 76.3037V76.3114C90.5287 78.1829 91.563 79.4436 93.0136 79.4436ZM101.599 82.7921V72.4257H102.581V74.0669H102.611C103.043 73.015 103.995 72.2845 105.238 72.2845C107.201 72.2845 108.519 73.8805 108.519 76.3037V76.3114C108.519 78.7423 107.194 80.3237 105.252 80.3237C104.017 80.3237 103.035 79.6001 102.611 78.5635H102.581V82.7921H101.599ZM105.066 79.4436C106.554 79.4436 107.514 78.2128 107.514 76.3114V76.3037C107.514 74.3877 106.554 73.1646 105.066 73.1646C103.608 73.1646 102.581 74.4246 102.581 76.3037V76.3114C102.581 78.1829 103.615 79.4436 105.066 79.4436ZM114.225 71.0238C113.86 71.0238 113.57 70.733 113.57 70.3678C113.57 70.0025 113.86 69.7193 114.225 69.7193C114.582 69.7193 114.872 70.0025 114.872 70.3678C114.872 70.733 114.582 71.0238 114.225 71.0238ZM113.727 80.1818V72.4257H114.716V80.1818H113.727ZM120.303 80.1818V72.4257H121.285V73.7462H121.315C121.702 72.9107 122.572 72.2921 123.822 72.2921C125.533 72.2921 126.545 73.3956 126.545 75.2149V80.1818H125.563V75.3791C125.563 73.9397 124.849 73.1716 123.532 73.1716C122.186 73.1716 121.285 74.1414 121.285 75.5878V80.1818H120.303ZM135.228 82.9334C133.39 82.9334 132.259 82.0533 131.984 80.9575L131.969 80.8977H132.959L132.989 80.9645C133.249 81.5913 134.038 82.0533 135.22 82.0533C136.701 82.0533 137.564 81.2184 137.564 79.8986V78.5336H137.541C137.133 79.5479 136.15 80.2715 134.908 80.2715C132.959 80.2715 131.627 78.6901 131.627 76.2738V76.2668C131.627 73.8652 132.973 72.2845 134.923 72.2845C136.158 72.2845 137.118 73.0373 137.541 74.0669H137.564V72.4257H138.553V79.9807C138.553 81.7701 137.274 82.9334 135.228 82.9334ZM135.102 79.3914C136.56 79.3914 137.564 78.1384 137.564 76.2738V76.2668C137.564 74.4099 136.552 73.1646 135.102 73.1646C133.606 73.1646 132.639 74.3947 132.639 76.2668V76.2738C132.639 78.1683 133.606 79.3914 135.102 79.3914ZM155.561 80.3536C152.615 80.3536 150.711 78.1683 150.711 74.7975V74.7898C150.711 71.412 152.6 69.249 155.561 69.249C157.786 69.249 159.43 70.6217 159.832 72.6351L159.847 72.7096H158.828L158.783 72.5753C158.374 71.1212 157.235 70.1966 155.561 70.1966C153.24 70.1966 151.752 71.9937 151.752 74.7898V74.7975C151.752 77.5867 153.255 79.406 155.561 79.406C157.228 79.406 158.359 78.489 158.805 76.9605L158.828 76.893H159.847L159.832 76.9675C159.43 78.9962 157.793 80.3536 155.561 80.3536ZM167.294 80.3237C165.769 80.3237 164.727 79.406 164.727 78.034V78.0194C164.727 76.6989 165.724 75.9009 167.503 75.7819L169.913 75.633V74.9617C169.913 73.8429 169.206 73.1646 168.001 73.1646C166.877 73.1646 166.141 73.7087 165.978 74.5887L165.962 74.6632H165.01L165.018 74.5741C165.166 73.239 166.268 72.2845 168.016 72.2845C169.787 72.2845 170.895 73.2836 170.895 74.8719V80.1818H169.913V78.7646H169.883C169.459 79.6898 168.44 80.3237 167.294 80.3237ZM165.732 78.034C165.732 78.8842 166.446 79.4582 167.495 79.4582C168.849 79.4582 169.913 78.5037 169.913 77.2659V76.4081L167.621 76.5647C166.409 76.6398 165.732 77.1692 165.732 78.0194V78.034ZM176.423 80.1818V69.4208H177.405V80.1818H176.423ZM186.11 80.3237C183.938 80.3237 182.59 78.7798 182.59 76.326V76.319C182.59 73.8875 183.96 72.2845 186.028 72.2845C188.096 72.2845 189.398 73.8353 189.398 76.1548V76.5424H183.588C183.618 78.3923 184.607 79.4436 186.132 79.4436C187.271 79.4436 188.059 78.8696 188.312 78.0264L188.327 77.9596H189.302L189.286 78.034C189.019 79.3615 187.784 80.3237 186.11 80.3237ZM186.021 73.1646C184.704 73.1646 183.722 74.1115 183.602 75.7597H188.409C188.297 74.0669 187.345 73.1646 186.021 73.1646ZM194.524 80.1818V72.4257H195.506V73.7462H195.536C195.923 72.9107 196.794 72.2921 198.043 72.2921C199.755 72.2921 200.766 73.3956 200.766 75.2149V80.1818H199.785V75.3791C199.785 73.9397 199.071 73.1716 197.753 73.1716C196.407 73.1716 195.506 74.1414 195.506 75.5878V80.1818H194.524ZM209.122 80.3237C207.172 80.3237 205.848 78.7277 205.848 76.3037V76.2967C205.848 73.8728 207.18 72.2845 209.114 72.2845C210.327 72.2845 211.324 72.9705 211.763 74.044H211.785V69.4208H212.774V80.1818H211.785V78.5711H211.755C211.309 79.6377 210.342 80.3237 209.122 80.3237ZM209.308 79.4436C210.766 79.4436 211.793 78.1759 211.793 76.3037V76.2967C211.793 74.4322 210.751 73.1646 209.308 73.1646C207.82 73.1646 206.86 74.3947 206.86 76.2967V76.3037C206.86 78.2205 207.82 79.4436 209.308 79.4436ZM220.639 80.3237C219.114 80.3237 218.072 79.406 218.072 78.034V78.0194C218.072 76.6989 219.069 75.9009 220.847 75.7819L223.257 75.633V74.9617C223.257 73.8429 222.551 73.1646 221.345 73.1646C220.222 73.1646 219.486 73.7087 219.322 74.5887L219.307 74.6632H218.355L218.362 74.5741C218.511 73.239 219.612 72.2845 221.36 72.2845C223.131 72.2845 224.24 73.2836 224.24 74.8719V80.1818H223.257V78.7646H223.228C222.804 79.6898 221.785 80.3237 220.639 80.3237ZM219.076 78.034C219.076 78.8842 219.79 79.4582 220.84 79.4582C222.193 79.4582 223.257 78.5037 223.257 77.2659V76.4081L220.966 76.5647C219.754 76.6398 219.076 77.1692 219.076 78.0194V78.034ZM229.701 80.1818V72.4257H230.682V73.8207H230.712C230.988 72.8737 231.672 72.2845 232.61 72.2845C232.87 72.2845 233.101 72.3367 233.22 72.3736V73.3357C233.093 73.2836 232.818 73.2314 232.483 73.2314C231.382 73.2314 230.682 74.0669 230.682 75.3791V80.1818H229.701Z" fill="#2EB55C"/>
</g>
<defs>
<clipPath id="clip0_1351_5">
<rect width="233" height="84" fill="white" transform="translate(0.5)"/>
</clipPath>
</defs>
</svg>
